<svg width="98" height="28" viewBox="0 0 98 28" fill="none" xmlns="http://www.w3.org/2000/svg">
<path d="M18.116 9.44C17.9107 10.5973 17.4347 11.5587 16.688 12.324C15.9413 13.0893 15.0453 13.6213 14 13.92C14.9333 14.1253 15.6707 14.5827 16.212 15.292C16.7533 16.0013 17.024 16.832 17.024 17.784C17.024 18.0827 16.996 18.372 16.94 18.652C16.66 20.2947 15.8573 21.6013 14.532 22.572C13.2067 23.524 11.5173 24 9.464 24H0.308L3.78 4.344H12.628C14.4013 4.344 15.7733 4.708 16.744 5.436C17.7147 6.164 18.2 7.172 18.2 8.46C18.2 8.77733 18.172 9.104 18.116 9.44ZM10.276 12.324C11.0787 12.324 11.7227 12.1467 12.208 11.792C12.6933 11.4373 12.992 10.924 13.104 10.252C13.1227 10.14 13.132 9.99067 13.132 9.804C13.132 9.26267 12.9547 8.852 12.6 8.572C12.2453 8.27333 11.7227 8.124 11.032 8.124H7.896L7.168 12.324H10.276ZM12.18 18.008C12.2173 17.784 12.236 17.616 12.236 17.504C12.236 16.9627 12.04 16.5427 11.648 16.244C11.256 15.9267 10.7147 15.768 10.024 15.768H6.552L5.768 20.192H9.296C10.1173 20.192 10.7707 20.0053 11.256 19.632C11.7413 19.2587 12.0493 18.7173 12.18 18.008ZM34.417 20.528H27.081L25.289 24H20.277L30.861 4.344H36.405L40.045 24H34.977L34.417 20.528ZM33.857 16.888L32.709 9.608L28.957 16.888H33.857ZM50.4416 20.36H56.7136L56.0696 24H45.0096L48.4816 4.344H53.2696L50.4416 20.36ZM74.0053 20.528H66.6693L64.8773 24H59.8653L70.4493 4.344H75.9933L79.6333 24H74.5653L74.0053 20.528ZM73.4453 16.888L72.2973 9.608L68.5453 16.888H73.4453Z" fill="white"/>
<path d="M92.52 24.224C91.7733 24.224 91.176 24.028 90.728 23.636C90.2987 23.2253 90.084 22.712 90.084 22.096C90.084 21.2373 90.4013 20.5093 91.036 19.912C91.6893 19.3147 92.492 19.016 93.444 19.016C94.172 19.016 94.7507 19.2213 95.18 19.632C95.6093 20.024 95.824 20.5373 95.824 21.172C95.824 22.012 95.4973 22.7307 94.844 23.328C94.2093 23.9253 93.4347 24.224 92.52 24.224Z" fill="#007DFA"/>
</svg>
